<?xml version="1.0" encoding="iso-8859-1"?>
<!-- Generator: Adobe Illustrator 22.1.0, SVG Export Plug-In . SVG Version: 6.00 Build 0)  -->
<svg xmlns="http://www.w3.org/2000/svg" xmlns:xlink="http://www.w3.org/1999/xlink" version="1.1" id="Layer_1_1_" x="0px" y="0px" viewBox="0 0 64 64" style="enable-background:new 0 0 64 64;" xml:space="preserve" width="512" height="512">
<linearGradient id="SVGID_1_" gradientUnits="userSpaceOnUse" x1="32" y1="63" x2="32" y2="1">
	<stop offset="0" style="stop-color:#9F2FFF"/>
	<stop offset="1" style="stop-color:#0BB1D3"/>
</linearGradient>
<path style="fill:url(#SVGID_1_);" d="M53.649,31H51v-6c0-1.103-0.897-2-2-2h-1.641C49.608,20.662,51,17.493,51,14  c0-7.168-5.832-13-13-13c-4.723,0-9.078,2.599-11.357,6.697C25.513,7.253,24.286,7,23,7c-5.514,0-10,4.486-10,10  c0,2.253,0.758,4.326,2.019,6H15c-1.103,0-2,0.897-2,2v3H9v4H7v-2H1v12h6v-2h2v4h4v3c0,1.103,0.897,2,2,2h7.484l-6,14h7.176l6-14  h4.682l6,14h7.176l-6-14H49c1.103,0,2-0.897,2-2v-6h2.649l5,4H63V27h-4.351L53.649,31z M5,40H3v-8h2V40z M7,38v-4h2v4H7z M11,42V30  h2v12H11z M38,3c6.065,0,11,4.935,11,11s-4.935,11-11,11c-2.461,0-4.828-0.83-6.761-2.345C32.348,21.045,33,19.098,33,17  c0-3.514-1.826-6.604-4.574-8.388C30.363,5.177,34.027,3,38,3z M23,9c4.411,0,8,3.589,8,8s-3.589,8-8,8s-8-3.589-8-8S18.589,9,23,9z   M22.341,61h-2.824l5.143-12h2.824L22.341,61z M44.483,61h-2.824l-5.143-12h2.824L44.483,61z M49,47H15V25h2.025  c1.669,1.25,3.733,2,5.975,2c2.698,0,5.146-1.079,6.947-2.822C32.242,26,35.063,27,38,27c2.535,0,4.895-0.74,6.897-2H49V47z M51,33  h2v6h-2V33z M61,29v14h-1.649L55,39.52V32.48L59.351,29H61z M38,18c2.206,0,4-1.794,4-4s-1.794-4-4-4s-4,1.794-4,4S35.794,18,38,18z   M38,12c1.103,0,2,0.897,2,2s-0.897,2-2,2s-2-0.897-2-2S36.897,12,38,12z M23,21c2.206,0,4-1.794,4-4s-1.794-4-4-4s-4,1.794-4,4  S20.794,21,23,21z M23,15c1.103,0,2,0.897,2,2s-0.897,2-2,2s-2-0.897-2-2S21.897,15,23,15z M17,43h2v2h-2V43z M21,43h2v2h-2V43z   M44,29H30c-1.654,0-3,1.346-3,3v10c0,1.654,1.346,3,3,3h14c1.654,0,3-1.346,3-3V32C47,30.346,45.654,29,44,29z M45,42  c0,0.551-0.449,1-1,1H30c-0.551,0-1-0.449-1-1V32c0-0.551,0.449-1,1-1h14c0.551,0,1,0.449,1,1V42z M33,41.618L42.236,37L33,32.382  V41.618z M35,35.618L37.764,37L35,38.382V35.618z M17,41h8V29h-8V41z M19,31h4v8h-4V31z M41.39,7.874l0.971-1.749  C45.222,7.713,47,10.73,47,14h-2C45,11.457,43.617,9.109,41.39,7.874z M39.75,7.22C39.183,7.074,38.594,7,38,7V5  c0.762,0,1.519,0.095,2.25,0.284L39.75,7.22z"/>
</svg>
